<svg width="201" height="88" viewBox="0 0 201 88" fill="none" xmlns="http://www.w3.org/2000/svg">
<rect width="201" height="88" fill="black"/>
<path fill-rule="evenodd" clip-rule="evenodd" d="M60.3332 44.4691C60.3332 41.7227 59.2167 39.1404 57.1894 37.1981C55.1618 35.2563 52.4661 34.1867 49.599 34.1867H26.6344V44.4691V54.7516H49.599C52.4661 54.7516 55.1618 53.6816 57.1894 51.7397C59.2167 49.798 60.3332 47.2157 60.3332 44.4691ZM70.9682 44.4693C70.9682 55.7742 61.4007 64.9385 49.599 64.9385H24.6872H19.8943H16V44.4693V24H49.599C61.4007 24 70.9682 33.1643 70.9682 44.4693ZM182.095 43.1325C180.873 41.9623 179.449 41.0429 177.862 40.4C176.216 39.733 174.472 39.395 172.676 39.395V39.4116H144.403C142.891 39.4116 141.663 38.2343 141.663 36.7872C141.663 35.3401 142.891 34.1629 144.403 34.1629H177.913C180.837 34.1629 183.207 31.8931 183.207 29.0931C183.207 26.2935 180.837 24.0237 177.913 24.0237H144.403C142.606 24.0237 140.861 24.3622 139.214 25.0292C137.627 25.6721 136.203 26.5914 134.98 27.7621C133.759 28.9328 132.799 30.2973 132.127 31.8175C131.431 33.3943 131.078 35.0667 131.078 36.7872C131.078 38.5082 131.431 40.1802 132.127 41.757C132.799 43.2777 133.759 44.6421 134.98 45.8123C136.203 46.9831 137.627 47.9024 139.214 48.5459C140.861 49.2128 142.606 49.5509 144.403 49.5509H172.676V49.5343C174.185 49.5343 175.411 50.7095 175.411 52.1551C175.411 53.5996 174.185 54.7759 172.676 54.7759H136.37C133.448 54.7759 131.078 57.0452 131.078 59.8453C131.078 62.6453 133.448 64.9146 136.37 64.9146H172.676C174.472 64.9146 176.216 64.5766 177.862 63.9096C179.449 63.2667 180.873 62.3475 182.095 61.1772C183.316 60.007 184.275 58.6435 184.947 57.1232C185.644 55.5469 185.997 53.8751 185.997 52.1551C185.997 50.4345 185.644 48.7631 184.947 47.1864C184.275 45.6667 183.316 44.3026 182.095 43.1325ZM117.822 24H128.407V59.8451C128.407 61.8956 127.118 63.7438 125.14 64.5288C124.485 64.7883 123.797 64.9145 123.116 64.9145C121.738 64.9149 120.385 64.3997 119.372 63.4298L84.0735 38.9893V64.9385H73.4887V29.0929C73.4887 27.0429 74.7783 25.1942 76.7558 24.4096C78.7338 23.625 81.0098 24.0586 82.5236 25.5087L117.822 49.9491V24Z" fill="#FC8507"/>
</svg>
