<svg width="26" height="26" viewBox="0 0 26 26" fill="none" xmlns="http://www.w3.org/2000/svg">
<rect width="26" height="26" fill="#1E1E1E"/>
<rect width="1920" height="1104" transform="translate(-110 -984)" fill="#E8E8E8"/>
<rect x="-110" y="-42" width="1920" height="162" fill="#2F2F2F"/>
<path d="M20.1498 22.1C20.1498 23.14 19.2398 24.05 18.1998 24.05H9.09978C8.05978 24.05 7.14978 23.14 7.14978 22.1V3.89995C7.14978 2.85995 8.05978 1.94995 9.09978 1.94995H18.1998C19.2398 1.94995 20.1498 2.85995 20.1498 3.89995V22.1Z" stroke="#CCCCCC" stroke-width="1.3"/>
<path d="M13.6497 22.49C14.2241 22.49 14.6897 22.0244 14.6897 21.45C14.6897 20.8757 14.2241 20.41 13.6497 20.41C13.0754 20.41 12.6097 20.8757 12.6097 21.45C12.6097 22.0244 13.0754 22.49 13.6497 22.49Z" fill="#CCCCCC"/>
</svg>
