<svg width="26" height="26" viewBox="0 0 26 26" fill="none" xmlns="http://www.w3.org/2000/svg">
<rect width="26" height="26" fill="#1E1E1E"/>
<g id="first page">
<rect width="1920" height="1104" transform="translate(-110 -1056)" fill="#E8E8E8"/>
<g id="podval">
<rect id="Rectangle 10" x="-110" y="-114" width="1920" height="162" fill="#2F2F2F"/>
<g id="SVG" clip-path="url(#clip0_0_1)">
<path id="Vector" d="M13 0.650024C8.33299 0.650024 4.54999 4.40702 4.54999 9.07402C4.54999 15.379 13 24.7 13 24.7C13 24.7 21.45 15.379 21.45 9.07402C21.45 4.40702 17.667 0.650024 13 0.650024Z" stroke="#CCCCCC" stroke-width="1.313"/>
<path id="Vector_2" d="M13 11.83C14.6513 11.83 15.99 10.4913 15.99 8.83998C15.99 7.18864 14.6513 5.84998 13 5.84998C11.3487 5.84998 10.01 7.18864 10.01 8.83998C10.01 10.4913 11.3487 11.83 13 11.83Z" stroke="#CCCCCC" stroke-width="1.3"/>
</g>
</g>
</g>
<defs>
<clipPath id="clip0_0_1">
<rect width="26" height="26" fill="white"/>
</clipPath>
</defs>
</svg>
