<svg width="201" height="21" viewBox="0 0 201 21" fill="none" xmlns="http://www.w3.org/2000/svg">
<path d="M0 9.55122V20.8914H4.555V14.1781C4.58319 14.2083 4.64192 14.2083 4.64192 14.2083C4.64192 14.0922 4.61373 14.0341 4.555 14.0341L16.7753 14.0039C19.1843 14.0039 21.1517 12.0581 21.1517 9.70456V4.30049C21.1517 1.94695 19.1843 0 16.7753 0H0V4.48519L16.5404 4.50378V9.47107L0 9.55122Z" fill="white"/>
<path d="M41.7799 0H22.2444V20.9205H41.7799V16.3865H26.8558V12.7249H38.8717V8.19323H26.8558V4.53282H41.7799V0Z" fill="white"/>
<path d="M85.2577 0H65.7222V20.9205H85.2577V16.3865H70.3335V12.7249H82.3494V8.19323H70.3335V4.53282H85.2577V0Z" fill="white"/>
<path d="M108.189 4V0H90.4805C88.5142 0 86.9556 1.53921 86.9556 3.48732V17.4622C86.9556 19.408 88.5142 20.9495 90.4805 20.9495H108.189V17H99.0889H91.5056C90.8889 17 91 16 91 15.5V5C91 4 91.3945 4 92.0111 4H108.189Z" fill="white"/>
<path d="M131.444 9.55122V20.8914H135.999V14.1781C136.028 14.2083 136.086 14.2083 136.086 14.2083C136.086 14.0922 136.058 14.0341 135.999 14.0341L148.22 14.0039C150.629 14.0039 152.596 12.0581 152.596 9.70456V4.30049C152.596 1.94695 150.629 0 148.22 0H131.444V4.48519L147.985 4.50378V9.47107L131.444 9.55122Z" fill="white"/>
<path d="M156.722 10.7617V20.8914H159.101V12.9874C159.541 13.0467 159.982 13.1036 160.246 13.1036H174.348C176.315 13.1036 177.874 11.5342 177.874 9.61744V3.48616C177.874 1.56825 176.315 0 174.348 0H156.722V2.38258L174.348 2.35237C174.966 2.35237 175.493 2.87629 175.493 3.48616V9.61744C175.493 10.2273 174.966 10.721 174.348 10.721L156.722 10.7617Z" fill="white"/>
<path d="M200.061 2.35237V0H182.491C180.525 0 178.967 1.53921 178.967 3.48732V17.4622C178.967 19.408 180.525 20.9495 182.491 20.9495H200.061V18.5948H182.491C181.875 18.5948 181.347 18.072 181.347 17.4622V3.48616C181.347 2.87629 181.875 2.35354 182.491 2.35354L200.061 2.35237Z" fill="white"/>
<path d="M43.4778 4.52818L60.017 4.50378V9.47107L43.4778 9.51637V20.8914H48.0316V14.1781C48.0598 14.2083 48.1197 14.2083 48.1197 14.2083C48.1197 14.0922 48.0903 14.0341 48.0316 14.0341L54.083 14.0039L59.9289 20.8914H64.6295V19.3499C63.1613 17.6074 61.5451 15.7487 60.0463 14.0039H60.253C62.6609 14.0039 64.6295 12.0581 64.6295 9.70456V4.30049C64.6295 1.94695 62.6609 0 60.253 0H43.4778V4.52818Z" fill="white"/>
<path d="M130 0V18.0053C130 19.6621 128.657 21 127 21H119.5H112C110.343 21 109 19.6569 109 18V0H113V16C113 16.5523 113.448 17 114 17H119.5H125C125.552 17 126 16.5523 126 16V0H130Z" fill="white"/>
</svg>
