<svg width="40" height="40" viewBox="0 0 40 40" fill="none" xmlns="http://www.w3.org/2000/svg">
<rect width="40" height="40" rx="20" fill="#191A1B"/>
<g clip-path="url(#clip0_50_429)">
<path d="M10.4 12.8001V11.6001H8V12.8001H9.2V27.2001H10.4V26.0001H32V12.8001H10.4ZM30.8 24.8001H10.4V14.0001H30.8V24.8001Z" fill="#CCCCCC"/>
<path d="M25.4 22.3999C25.9934 22.3999 26.5734 22.224 27.0667 21.8943C27.5601 21.5647 27.9446 21.0961 28.1717 20.548C28.3987 19.9998 28.4581 19.3966 28.3424 18.8146C28.2266 18.2327 27.9409 17.6981 27.5213 17.2786C27.1018 16.859 26.5672 16.5733 25.9853 16.4575C25.4034 16.3418 24.8002 16.4012 24.252 16.6283C23.7038 16.8553 23.2353 17.2398 22.9056 17.7332C22.576 18.2265 22.4 18.8066 22.4 19.3999C22.4032 20.1946 22.7203 20.9558 23.2822 21.5177C23.8441 22.0797 24.6053 22.3967 25.4 22.3999ZM25.4 17.5999C25.756 17.5999 26.104 17.7055 26.4001 17.9033C26.6961 18.101 26.9268 18.3822 27.063 18.7111C27.1992 19.04 27.2349 19.4019 27.1654 19.7511C27.096 20.1002 26.9246 20.421 26.6728 20.6727C26.4211 20.9244 26.1004 21.0959 25.7512 21.1653C25.402 21.2348 25.0401 21.1991 24.7112 21.0629C24.3823 20.9267 24.1012 20.6959 23.9034 20.3999C23.7056 20.1039 23.6 19.7559 23.6 19.3999C23.6 18.9225 23.7897 18.4647 24.1272 18.1271C24.4648 17.7895 24.9226 17.5999 25.4 17.5999Z" fill="#CCCCCC"/>
<path d="M21.2 28.3999H12.8V29.5999H21.2V28.3999Z" fill="#CCCCCC"/>
<path d="M14 16.3999H12.8V22.3999H14V16.3999Z" fill="#CCCCCC"/>
<path d="M18.8 16.3999H17.6V22.3999H18.8V16.3999Z" fill="#CCCCCC"/>
</g>
<defs>
<clipPath id="clip0_50_429">
<rect width="24" height="24" fill="white" transform="translate(8 8)"/>
</clipPath>
</defs>
</svg>
