<svg width="40" height="40" viewBox="0 0 40 40" fill="none" xmlns="http://www.w3.org/2000/svg">
<rect width="40" height="40" rx="20" fill="#191A1B"/>
<g clip-path="url(#clip0_50_464)">
<path d="M21.2 19.436V12.8C21.2 11.527 20.6943 10.3061 19.7941 9.40589C18.894 8.50571 17.6731 8 16.4 8C15.127 8 13.9061 8.50571 13.0059 9.40589C12.1057 10.3061 11.6 11.527 11.6 12.8V19.436C10.5132 20.4081 9.74707 21.6873 9.40315 23.1044C9.05922 24.5214 9.15366 26.0095 9.67397 27.3717C10.1943 28.7339 11.1159 29.906 12.317 30.7329C13.518 31.5598 14.9418 32.0026 16.4 32.0026C17.8582 32.0026 19.282 31.5598 20.483 30.7329C21.6841 29.906 22.6057 28.7339 23.1261 27.3717C23.6464 26.0095 23.7408 24.5214 23.3969 23.1044C23.053 21.6873 22.2869 20.4081 21.2 19.436ZM16.4 30.8C15.1637 30.8005 13.9575 30.419 12.9462 29.7079C11.935 28.9967 11.1681 27.9905 10.7505 26.8269C10.3328 25.6633 10.2848 24.3991 10.613 23.2072C10.9412 22.0153 11.6296 20.9538 12.584 20.168L12.8 20V12.8C12.8 11.8452 13.1793 10.9295 13.8544 10.2544C14.5296 9.57928 15.4452 9.2 16.4 9.2C17.3548 9.2 18.2705 9.57928 18.9456 10.2544C19.6207 10.9295 20 11.8452 20 12.8V20L20.216 20.18C21.1658 20.967 21.8499 22.0276 22.1753 23.2173C22.5006 24.407 22.4514 25.6682 22.0343 26.8289C21.6172 27.9897 20.8525 28.9937 19.8443 29.7043C18.8361 30.4149 17.6334 30.7975 16.4 30.8Z" fill="#CCCCCC"/>
<path d="M17.6 22.736V14C17.6 13.6818 17.4736 13.3766 17.2485 13.1515C17.0235 12.9265 16.7183 12.8 16.4 12.8C16.0817 12.8 15.7765 12.9265 15.5515 13.1515C15.3264 13.3766 15.2 13.6818 15.2 14V22.736C14.7425 23.0002 14.3849 23.408 14.1827 23.8961C13.9805 24.3842 13.945 24.9254 14.0818 25.4357C14.2185 25.946 14.5198 26.3969 14.939 26.7186C15.3581 27.0402 15.8717 27.2145 16.4 27.2145C16.9283 27.2145 17.4419 27.0402 17.861 26.7186C18.2802 26.3969 18.5815 25.946 18.7182 25.4357C18.855 24.9254 18.8195 24.3842 18.6173 23.8961C18.4151 23.408 18.0575 23.0002 17.6 22.736Z" fill="#CCCCCC"/>
<path d="M29.6 10.3999H24.8V11.5999H29.6V10.3999Z" fill="#CCCCCC"/>
<path d="M30.8 14H24.8V15.2H30.8V14Z" fill="#CCCCCC"/>
<path d="M29.6 17.6001H24.8V18.8001H29.6V17.6001Z" fill="#CCCCCC"/>
</g>
<defs>
<clipPath id="clip0_50_464">
<rect width="24" height="24" fill="white" transform="translate(8 8)"/>
</clipPath>
</defs>
</svg>
