<svg width="201" height="88" viewBox="0 0 201 88" fill="none" xmlns="http://www.w3.org/2000/svg">
<rect width="201" height="88" fill="black"/>
<path d="M139.933 55.6213C149.957 50.5873 152.356 44.2316 149.278 42.4432C144.734 40.0222 132.227 44.3559 133.668 56.2576C133.048 56.6077 131.805 57.2516 131.805 57.2516L132.622 59.65C132.622 59.65 134.375 58.6522 134.825 58.3548C136.293 59.4843 137.055 60.1056 139.313 60.162C144.142 60.2675 148.291 55.1543 148.291 55.1543L147.079 53.3471C147.106 53.3321 141.797 58.2079 139.933 55.6213ZM141.264 48.3244C142.701 45.9034 145.018 44.017 146.174 44.7701C147.331 45.523 145.018 49.3485 139.625 53.43C139.4 53.0647 139.823 50.768 141.264 48.3244ZM49.1498 60.147C48.1648 60.1351 47.2234 59.7584 46.5244 59.0965C44.1242 56.6981 46.3823 48.5955 46.8601 46.8447C46.8717 46.8071 46.874 46.7675 46.8668 46.729C46.8596 46.6904 46.8431 46.654 46.8186 46.6225C46.794 46.5911 46.7622 46.5656 46.7255 46.5479C46.6888 46.5303 46.6484 46.521 46.6074 46.5208C46.5566 46.5209 46.5067 46.5334 46.4624 46.5571C46.4182 46.5808 46.381 46.6151 46.3547 46.6564C45.3361 48.6219 39.8329 60.147 34.9772 60.147H34.6929C29.9793 59.714 30.603 53.5203 32.0676 49.7514H39.6632C39.0434 51.3666 38.846 52.3869 38.846 52.9291C38.8736 53.3057 39.2131 53.5203 39.5211 53.3622C40.3106 52.9555 41.6095 51.3403 42.7385 49.484C44.7716 46.0652 47.4246 40.9484 51.9881 28H60.2983C57.8427 35.2141 55.8373 41.7316 54.7517 49.1866C54.737 49.2764 54.7523 49.3684 54.7955 49.4495C54.8387 49.5306 54.9075 49.5966 54.9922 49.6383C55.077 49.68 55.1733 49.6951 55.2676 49.6817C55.3619 49.6681 55.4493 49.6267 55.5175 49.5631C57.8862 47.4358 66.5713 29.5588 67.0885 28H75.4459C75.4459 28 67.2306 49.6723 67.9097 53.3057C67.9211 53.4397 67.9763 53.567 68.0674 53.6696C68.1586 53.7722 68.2811 53.8449 68.4177 53.8777C68.5545 53.9105 68.6985 53.9018 68.8298 53.8524C68.9609 53.8032 69.0727 53.716 69.1492 53.6032C69.6309 53.0383 70.3099 52.2025 70.7876 51.6904L71.9719 52.82C69.6033 55.6175 65.7344 60.6516 61.8972 60.0604C61.2844 59.9389 60.7218 59.6498 60.2786 59.2283C56.2716 55.9187 61.8577 44.8265 62.8486 42.2135C63.0735 41.6487 63.2709 41.1103 63.4131 40.7866C63.4275 40.7471 63.4319 40.705 63.4259 40.6638C63.4198 40.6224 63.4037 40.5831 63.3786 40.5489C63.3536 40.5147 63.3204 40.4867 63.2818 40.4672C63.2432 40.4476 63.2002 40.437 63.1565 40.4364C63.1057 40.436 63.0556 40.4483 63.0113 40.4722C62.967 40.4959 62.93 40.5303 62.9038 40.5719C62.7064 40.9747 62.1972 42.0253 61.9998 42.3754C59.5364 47.2475 53.8357 60.147 49.1498 60.147ZM127.628 33.5461C125.402 33.5087 123.241 34.2555 121.556 35.6433L121.615 37.7706C121.615 37.7706 124.268 35.2141 127.036 36.3173C128.84 37.0176 130.194 39.0357 129.179 42.5637C129.124 42.7783 129.01 43.185 128.954 43.3995C128.165 41.7842 125.228 40.5455 121.134 43.5049C118.141 45.6586 117.379 47.9478 116.791 49.8078C115.942 52.5263 116.002 55.4556 116.649 57.2101C116.92 57.8943 117.339 58.5163 117.879 59.0354C118.419 59.5544 119.068 59.9589 119.784 60.2223C126.558 62.6734 131.895 52.692 133.53 45.4968C134.572 40.9484 135.362 33.6778 127.628 33.5461ZM123.984 55.4067C123.222 55.8923 121.923 56.107 121.726 53.8705C121.473 50.6663 123.929 46.8974 124.663 46.0088C125.934 44.5291 127.656 44.45 127.628 46.7619C127.6 49.4577 125.875 54.2206 123.984 55.4067ZM103.546 31.6861C99.5394 30.3682 85.3865 34.6492 80.7083 49.5895C80.1438 49.7514 77.4081 50.399 77.4081 50.399L76.2237 53.4676L80.4123 52.2288C80.4123 52.2288 79.9583 59.9022 87.017 60.1357C92.5794 59.9437 95.485 52.1385 93.7084 46.8334C93.369 46.9953 88.9079 49.0398 88.9079 49.0398C88.9079 49.0398 89.8396 54.2395 87.8658 55.4405C87.7905 55.4911 87.7051 55.5265 87.6149 55.5444C87.5248 55.5624 87.4317 55.5626 87.3414 55.5449C87.2513 55.5273 87.1657 55.4922 87.0902 55.4419C87.0147 55.3916 86.9508 55.327 86.9025 55.2522C86.338 54.4993 85.9708 52.5075 86.5945 49.8681C96.7838 44.8077 103.756 35.937 104.182 32.8533C104.233 32.6187 104.198 32.3743 104.082 32.1616C103.967 31.9489 103.777 31.7809 103.546 31.6861ZM90.8701 44.9056C89.8146 45.6859 88.6921 46.3799 87.5144 46.9802C87.5144 46.9802 88.0473 45.7941 88.446 45.1202C89.5435 43.3732 94.7941 36.6147 99.1998 35.3759C99.2363 35.3632 99.2758 35.36 99.3138 35.3671C99.352 35.3741 99.3874 35.3909 99.4163 35.4158C99.4452 35.4405 99.4663 35.4724 99.4776 35.5079C99.4889 35.5433 99.4898 35.581 99.4802 35.617C99.4802 37.1004 93.894 42.7256 90.8701 44.9056ZM111.876 55.9451C111.863 55.9841 111.862 56.0262 111.874 56.0658C111.886 56.1054 111.91 56.1405 111.943 56.1667C111.977 56.1928 112.018 56.2087 112.06 56.2121C112.104 56.2156 112.147 56.2064 112.184 56.1861C112.729 55.8437 113.257 55.4756 113.763 55.0828L114.328 56.7245C113.988 57.0746 111.276 59.1229 109.59 59.8759C107.759 60.6854 106.093 59.6085 105.836 58.3134C105.583 56.8073 106.373 54.8419 106.373 54.8419C106.373 54.8419 103.467 58.0196 100.503 59.5521C99.9159 59.9049 99.2448 60.1096 98.5525 60.147C96.5509 60.0905 95.9271 58.2645 96.1561 57.2629C96.4088 56.0806 99.1209 48.1361 99.4565 46.8447C99.4604 46.8098 99.4556 46.7744 99.4424 46.7416C99.4293 46.7088 99.4082 46.6795 99.3808 46.6559C99.3535 46.6324 99.3206 46.6154 99.2851 46.6063C99.2495 46.5972 99.2122 46.5963 99.1761 46.6037C98.3551 46.8183 96.2114 48.1625 96.2114 48.1625V45.9561C96.2114 45.9561 102.421 41.9161 103.973 41.4869C105.414 41.1103 106.657 41.8897 106.29 43.4523C106.12 44.5291 102.082 53.8705 102.082 55.0565C102.077 55.0884 102.081 55.1208 102.093 55.151C102.105 55.1811 102.125 55.2079 102.15 55.2292C102.175 55.2504 102.206 55.2653 102.239 55.2726C102.272 55.28 102.306 55.2795 102.338 55.2711C103.495 54.9473 105.611 53.2266 107.222 50.7755C108.746 48.4863 109.76 45.606 111.031 42.0253H116.424C116.42 42.0516 112.326 53.9797 111.876 55.9451ZM168.192 44.7437C168.306 46.4154 166.64 55.2184 159.865 58.7463C157.86 59.7968 156.506 60.1997 155.29 60.147C152.412 60.0641 151.058 57.8314 150.746 57.1048C147.446 49.2958 157.098 42.044 157.098 42.044H162.688C162.688 42.044 154.161 48.5353 155.349 54.2959C156.281 57.7938 159.692 56.0995 161.587 52.1422C161.954 51.3591 164.239 46.1631 162.803 46.0841C161.532 46.0013 159.837 48.5615 159.837 48.5615L158.654 46.8372C159.585 45.7075 162.183 42.7444 165.092 41.8031C165.566 41.6751 168.164 41.163 168.192 44.7437ZM74.4906 55.8923C74.9317 55.8923 75.363 56.0171 75.7298 56.2509C76.0966 56.4847 76.3825 56.8169 76.5513 57.2055C76.7202 57.5943 76.7643 58.022 76.6783 58.4347C76.5922 58.8474 76.3797 59.2264 76.0678 59.5239C75.7559 59.8215 75.3584 60.024 74.9258 60.1061C74.4931 60.1882 74.0446 60.146 73.6371 59.9851C73.2295 59.824 72.8811 59.5514 72.6361 59.2015C72.3909 58.8517 72.2601 58.4404 72.2601 58.0196C72.258 57.7398 72.3142 57.4623 72.4256 57.2032C72.5369 56.9442 72.7012 56.7089 72.9088 56.5109C73.1163 56.313 73.363 56.1564 73.6345 56.0503C73.9061 55.944 74.1971 55.8903 74.4906 55.8923Z" fill="#E31235"/>
</svg>
