<svg width="201" height="88" viewBox="0 0 201 88" fill="none" xmlns="http://www.w3.org/2000/svg">
<rect width="201" height="88" fill="black"/>
<path fill-rule="evenodd" clip-rule="evenodd" d="M35.5497 26.0981C31.7279 25.7124 27.8753 26.4701 24.5213 28.267C21.1673 30.0639 18.4766 32.8118 16.8192 36.1329C15.1617 39.4541 14.6187 43.1855 15.2649 46.8142C15.9111 50.443 17.7147 53.7909 20.4278 56.3979C23.141 59.0049 26.6304 60.743 30.4166 61.3732C34.2028 62.0034 38.0998 61.4948 41.572 59.9174C45.0442 58.3399 47.9211 55.771 49.8073 52.5638C51.6936 49.3566 52.4965 45.6684 52.1057 42.0064C51.6757 37.9357 49.7946 34.1313 46.7791 31.2338C43.7635 28.3362 39.7978 26.5225 35.5497 26.0981ZM34.9469 53.2475C32.8915 53.5116 30.8013 53.1522 28.9701 52.2196C27.1389 51.2871 25.6588 49.8283 24.7378 48.0484C23.8168 46.2684 23.5013 44.2568 23.8354 42.2962C24.1696 40.3356 25.1367 38.5245 26.6009 37.1176C28.065 35.7107 29.9526 34.7786 31.9983 34.4524C34.044 34.1261 36.145 34.4221 38.0061 35.2988C39.8671 36.1754 41.3946 37.5887 42.3738 39.3398C43.3531 41.091 43.7349 43.0921 43.4656 45.0618C43.1829 47.1337 42.1952 49.0585 40.6552 50.5383C39.1152 52.0181 37.1089 52.9703 34.9469 53.2475ZM62.0547 26.803C61.4095 26.8044 60.7728 26.9437 60.1909 27.2105C59.609 27.4774 59.0966 27.8652 58.6908 28.3456C58.285 28.8261 57.9962 29.3872 57.8453 29.988C57.6944 30.5889 57.6853 31.2144 57.8185 31.8191C58.2267 33.778 60.1368 35.1165 62.2176 35.1165H74.2931L55.501 58.9385C55.362 59.1144 55.2769 59.3239 55.2552 59.5435C55.2335 59.7631 55.2761 59.9841 55.3783 60.1818C55.4804 60.3795 55.638 60.5461 55.8333 60.6628C56.0287 60.7795 56.2542 60.8418 56.4845 60.8426H85.9618C88.0412 60.8426 89.9527 59.5045 90.3609 57.5452C90.4942 56.9406 90.4851 56.3152 90.3343 55.7144C90.1836 55.1136 89.8949 54.5526 89.4893 54.0721C89.0838 53.5916 88.5715 53.2037 87.9898 52.9367C87.4081 52.6697 86.7716 52.5302 86.1265 52.5285H71.4135L90.1912 28.7249C90.3316 28.5473 90.4175 28.3358 90.4393 28.114C90.4612 27.8923 90.4181 27.6691 90.3149 27.4695C90.2117 27.27 90.0525 27.1019 89.8551 26.9841C89.6578 26.8664 89.43 26.8036 89.1975 26.803H62.0547ZM179.844 26.8989C178.868 27.1211 178.001 27.6558 177.385 28.4145C176.769 29.1731 176.443 30.1103 176.458 31.0711V44.9128L153.044 27.0644C152.86 26.9248 152.639 26.8376 152.406 26.813C152.173 26.7884 151.938 26.8273 151.727 26.9252C151.516 27.0232 151.338 27.1762 151.214 27.3666C151.09 27.5571 151.024 27.7772 151.025 28.0018V56.5819C151.009 57.5427 151.336 58.4799 151.951 59.2386C152.567 59.9972 153.435 60.5319 154.41 60.7541C155.044 60.8877 155.701 60.8833 156.333 60.7412C156.965 60.5991 157.555 60.323 158.06 59.9333C158.566 59.5435 158.973 59.05 159.253 58.4892C159.533 57.9283 159.678 57.3145 159.677 56.6929V42.7315L183.091 60.5802C183.275 60.7197 183.496 60.8068 183.729 60.8314C183.962 60.856 184.197 60.8171 184.408 60.7192C184.619 60.6213 184.797 60.4684 184.921 60.278C185.045 60.0877 185.111 59.8676 185.11 59.6431V30.9587C185.111 30.3373 184.966 29.7236 184.686 29.163C184.406 28.6024 183.999 28.1091 183.493 27.7195C182.988 27.3298 182.398 27.0538 181.766 26.9118C181.135 26.7698 180.478 26.7654 179.844 26.8989ZM118.88 34.3207C128.783 34.3207 136.183 39.3341 136.183 43.8186C136.183 48.3031 128.783 53.3165 118.88 53.3165C108.976 53.3165 101.576 48.3031 101.576 43.8186C101.576 39.3341 108.976 34.3207 118.88 34.3207ZM118.88 26.0075C104.545 26.0075 92.924 33.9819 92.924 43.8186C92.924 53.6553 104.545 61.6296 118.88 61.6296C133.215 61.6296 144.835 53.6553 144.835 43.8186C144.835 33.9819 133.214 26.0075 118.88 26.0075Z" fill="#0069FF"/>
</svg>
