<svg width="24" height="24" viewBox="0 0 24 24" fill="none" xmlns="http://www.w3.org/2000/svg">
<mask id="path-1-inside-1_125_112" fill="white">
<path fill-rule="evenodd" clip-rule="evenodd" d="M4.55486 20.4118C4.51864 20.1129 4.5 19.8086 4.5 19.5C4.5 15.3579 7.85786 12 12 12C16.1421 12 19.5 15.3579 19.5 19.5C19.5 19.8086 19.4814 20.1129 19.4451 20.4118C19.0695 20.7093 18.6756 20.9849 18.2655 21.2364C18.4183 20.6837 18.5 20.1014 18.5 19.5C18.5 15.9101 15.5899 13 12 13C8.41015 13 5.5 15.9101 5.5 19.5C5.5 20.1014 5.58167 20.6837 5.73453 21.2364C5.32438 20.9849 4.9305 20.7093 4.55486 20.4118Z"/>
</mask>
<path d="M4.55486 20.4118L3.24445 20.5706L3.30976 21.1095L3.73525 21.4465L4.55486 20.4118ZM19.4451 20.4118L20.2647 21.4465L20.6902 21.1095L20.7555 20.5706L19.4451 20.4118ZM18.2655 21.2364L16.9932 20.8846L16.1005 24.113L18.9556 22.3616L18.2655 21.2364ZM5.73453 21.2364L5.04436 22.3616L7.89954 24.113L7.00678 20.8846L5.73453 21.2364ZM3.18 19.5C3.18 19.8618 3.20186 20.2192 3.24445 20.5706L5.86527 20.253C5.83543 20.0067 5.82 19.7554 5.82 19.5H3.18ZM12 10.68C7.12885 10.68 3.18 14.6288 3.18 19.5H5.82C5.82 16.0869 8.58688 13.32 12 13.32V10.68ZM20.82 19.5C20.82 14.6288 16.8712 10.68 12 10.68V13.32C15.4131 13.32 18.18 16.0869 18.18 19.5H20.82ZM20.7555 20.5706C20.7981 20.2192 20.82 19.8618 20.82 19.5H18.18C18.18 19.7554 18.1646 20.0067 18.1347 20.253L20.7555 20.5706ZM18.6255 19.3771C18.291 19.642 17.9403 19.8873 17.5753 20.1113L18.9556 22.3616C19.4109 22.0824 19.848 21.7766 20.2647 21.4465L18.6255 19.3771ZM19.5377 21.5883C19.722 20.922 19.82 20.2214 19.82 19.5H17.18C17.18 19.9814 17.1147 20.4454 16.9932 20.8846L19.5377 21.5883ZM19.82 19.5C19.82 15.1811 16.3189 11.68 12 11.68V14.32C14.8608 14.32 17.18 16.6392 17.18 19.5H19.82ZM12 11.68C7.68113 11.68 4.18 15.1811 4.18 19.5H6.82C6.82 16.6392 9.13916 14.32 12 14.32V11.68ZM4.18 19.5C4.18 20.2214 4.27804 20.922 4.46228 21.5883L7.00678 20.8846C6.88531 20.4454 6.82 19.9814 6.82 19.5H4.18ZM6.4247 20.1113C6.05966 19.8873 5.70899 19.642 5.37448 19.3771L3.73525 21.4465C4.15201 21.7766 4.5891 22.0824 5.04436 22.3616L6.4247 20.1113Z" fill="#999999" mask="url(#path-1-inside-1_125_112)"/>
<circle cx="12" cy="9.5" r="2.84" stroke="#999999" stroke-width="1.32"/>
<circle cx="12" cy="12" r="11.34" stroke="#999999" stroke-width="1.32"/>
</svg>
