<svg width="201" height="88" viewBox="0 0 201 88" fill="none" xmlns="http://www.w3.org/2000/svg">
<rect width="201" height="88" fill="black"/>
<g clip-path="url(#clip0_50_861)">
<path d="M48.7965 34.0791H38.3106C37.3047 34.0801 36.3403 34.4802 35.6291 35.1916C34.9179 35.903 34.5181 36.8675 34.5174 37.8734V46.1957C34.5181 47.2017 34.9179 48.1662 35.6291 48.8776C36.3403 49.5889 37.3047 49.989 38.3106 49.99H48.7965C48.859 49.99 48.9189 49.9652 48.9631 49.921C49.0073 49.8769 49.0321 49.817 49.0321 49.7545V47.252C49.0317 47.1898 49.0067 47.1303 48.9625 47.0864C48.9184 47.0426 48.8587 47.018 48.7965 47.018H37.9487C37.8539 47.0168 37.7633 46.9785 37.6963 46.9114C37.6293 46.8443 37.5912 46.7537 37.5901 46.6588V43.4183H46.0404C46.1024 43.4184 46.1621 43.3939 46.2061 43.3501C46.2502 43.3064 46.2751 43.2469 46.2754 43.1848V40.6818C46.2753 40.651 46.2692 40.6205 46.2573 40.5921C46.2455 40.5637 46.2281 40.5379 46.2063 40.5161C46.1845 40.4944 46.1586 40.4772 46.1301 40.4655C46.1016 40.4538 46.0711 40.4478 46.0404 40.4478H37.5901V37.4098C37.5901 37.2142 37.7537 37.0484 37.9487 37.0484H48.7965C48.8273 37.0486 48.8578 37.0427 48.8863 37.031C48.9148 37.0194 48.9408 37.0022 48.9626 36.9805C48.9845 36.9588 49.0019 36.9331 49.0138 36.9047C49.0257 36.8763 49.0319 36.8458 49.0321 36.815V34.3136C49.032 34.2827 49.0259 34.2522 49.014 34.2237C49.0021 34.1952 48.9847 34.1693 48.9629 34.1476C48.941 34.1258 48.9151 34.1085 48.8865 34.0968C48.858 34.085 48.8274 34.079 48.7965 34.0791ZM31.402 34.0791H16.2334C16.2027 34.0792 16.1723 34.0853 16.1439 34.0971C16.1156 34.1089 16.0898 34.1262 16.0681 34.148C16.0465 34.1698 16.0293 34.1956 16.0176 34.224C16.0059 34.2524 15.9999 34.2829 16 34.3136V36.9078C16 37.0362 16.1044 37.1406 16.2334 37.1406H22.1721V49.7342C22.1721 49.8621 22.2771 49.9687 22.4055 49.9687H25.2294C25.3573 49.9687 25.4623 49.8621 25.4623 49.7342V37.1406H31.402C31.4638 37.1405 31.5231 37.116 31.5669 37.0723C31.6107 37.0287 31.6355 36.9696 31.6359 36.9078V34.313C31.6358 34.251 31.6111 34.1916 31.5673 34.1478C31.5234 34.1039 31.464 34.0792 31.402 34.0791ZM60.7245 43.6602L65.3256 49.6255C65.3256 49.6255 65.6049 49.9847 66.044 49.9847H68.9201C69.049 49.9847 69.1551 49.9628 69.1551 49.8334C69.1551 49.7438 68.9201 49.4337 68.9201 49.4337L63.324 42.0311L68.9201 34.6301C68.9201 34.6301 69.1551 34.3221 69.1551 34.2486C69.1551 34.1425 69.1109 34.0791 68.9201 34.0791H66.044C65.5489 34.0791 65.3128 34.4388 65.3128 34.4388L60.7245 40.4031L56.1362 34.4388C56.1362 34.4388 55.9002 34.0791 55.4051 34.0791H52.529C52.3382 34.0791 52.294 34.1425 52.294 34.2486C52.294 34.3221 52.529 34.6301 52.529 34.6301L58.1256 42.0311L52.5295 49.4337C52.5295 49.4337 52.294 49.7438 52.294 49.8334C52.294 49.9628 52.4 49.9847 52.529 49.9847H55.4051C55.8437 49.9847 56.124 49.6255 56.124 49.6255L60.7245 43.6602ZM88.2139 34.0807H85.5174C85.4553 34.0808 85.3958 34.1056 85.3519 34.1496C85.3081 34.1935 85.2834 34.2531 85.2834 34.3152V40.4063H76.2374L76.2321 34.3152C76.2321 34.2845 76.2261 34.254 76.2144 34.2256C76.2028 34.1972 76.1856 34.1714 76.1639 34.1496C76.1422 34.1278 76.1165 34.1105 76.0881 34.0987C76.0598 34.0869 76.0294 34.0808 75.9986 34.0807H73.3011C73.2391 34.081 73.1797 34.1058 73.136 34.1498C73.0922 34.1937 73.0677 34.2532 73.0677 34.3152V49.7534C73.0677 49.8824 73.1732 49.9879 73.3011 49.9879H75.9986C76.0606 49.9876 76.12 49.9628 76.1637 49.9188C76.2075 49.8749 76.2321 49.8154 76.2321 49.7534L76.2374 43.4678H85.2834V49.7529C85.2834 49.8824 85.3889 49.9879 85.5174 49.9879H88.2139C88.2759 49.9876 88.3353 49.9628 88.379 49.9188C88.4227 49.8749 88.4473 49.8154 88.4473 49.7534V34.3146C88.4473 34.2839 88.4414 34.2535 88.4297 34.2251C88.418 34.1967 88.4008 34.1708 88.3791 34.1491C88.3575 34.1273 88.3317 34.11 88.3034 34.0982C88.275 34.0864 88.2446 34.0808 88.2139 34.0807ZM125.523 34.0802H117.557C115.474 34.0802 113.777 35.7764 113.777 37.8606V49.7524C113.777 49.8144 113.801 49.8741 113.845 49.9181C113.889 49.9622 113.948 49.9871 114.01 49.9874H116.707C116.769 49.9872 116.828 49.9625 116.872 49.9185C116.916 49.8745 116.941 49.815 116.941 49.7529V37.5014C116.941 37.3064 117.105 37.1417 117.299 37.1417H125.78C125.974 37.1417 126.139 37.3069 126.139 37.5009V49.7524C126.139 49.8144 126.163 49.8741 126.207 49.9181C126.251 49.9622 126.31 49.9871 126.372 49.9874H129.068C129.131 49.9874 129.19 49.9627 129.234 49.9187C129.279 49.8748 129.303 49.8151 129.303 49.7529V37.8606C129.303 35.7769 127.606 34.0802 125.523 34.0802ZM164.472 42.1713C164.471 42.2657 164.433 42.3559 164.367 42.4227C164.3 42.4895 164.21 42.5276 164.115 42.5288H156.188V37.4002C156.188 37.2051 156.352 37.0405 156.546 37.0405H164.115C164.309 37.0405 164.472 37.2051 164.472 37.4002V42.1713ZM163.755 34.0807H156.905C154.821 34.0807 153.125 35.7769 153.125 37.8611V49.7534C153.125 49.8834 153.23 49.9879 153.359 49.9879H155.954C156.016 49.9878 156.076 49.963 156.119 49.919C156.163 49.8751 156.188 49.8155 156.188 49.7534V45.4912H164.115C166.199 45.4912 167.536 43.795 167.536 41.7108V37.8611C167.535 36.8588 167.136 35.8979 166.427 35.1892C165.718 34.4805 164.757 34.0818 163.755 34.0807ZM179.197 41.5835L185.026 34.6061C185.026 34.6061 185.495 34.0807 184.648 34.0807H182.181C181.75 34.0807 181.462 34.4399 181.462 34.4399L176.374 40.5656H174.188L174.187 34.3152C174.187 34.2531 174.162 34.1935 174.118 34.1496C174.074 34.1056 174.015 34.0808 173.953 34.0807H171.359C171.297 34.0808 171.237 34.1056 171.193 34.1496C171.149 34.1935 171.125 34.2531 171.125 34.3152L171.125 49.7529C171.125 49.7837 171.131 49.8143 171.143 49.8428C171.155 49.8713 171.172 49.8972 171.194 49.919C171.216 49.9409 171.241 49.9582 171.27 49.97C171.298 49.9818 171.329 49.9879 171.36 49.9879H173.954C173.985 49.9878 174.015 49.9817 174.044 49.9698C174.072 49.958 174.098 49.9407 174.12 49.9188C174.141 49.897 174.159 49.8711 174.17 49.8427C174.182 49.8142 174.188 49.7837 174.188 49.7529V43.6266H177.099L182.084 49.6287C182.084 49.6287 182.402 49.9879 182.803 49.9879H185.367C186.214 49.9879 185.745 49.4539 185.745 49.4539L179.197 41.5835Z" fill="white"/>
<path d="M106.189 44.1183C106.189 44.3139 106.024 44.478 105.829 44.478H96.499C96.4039 44.4768 96.3131 44.4385 96.2458 44.3713C96.1785 44.3041 96.1401 44.2134 96.1387 44.1183V37.5188C96.1387 37.3227 96.3045 37.1575 96.499 37.1575H105.829C106.024 37.1575 106.189 37.3227 106.189 37.5188V44.1183ZM105.469 34.0811H96.8581C94.7654 34.0811 93.0617 35.7847 93.0617 37.8785V43.7591C93.0617 45.8518 94.7654 47.5545 96.8581 47.5545H105.469C107.563 47.5545 109.265 45.8518 109.265 43.7591V37.8785C109.265 35.7847 107.563 34.0811 105.469 34.0811ZM109.216 52.4817V49.9883C109.216 49.9262 109.191 49.8666 109.147 49.8226C109.103 49.7787 109.044 49.7539 108.982 49.7538H93.2951C93.233 49.7539 93.1734 49.7787 93.1295 49.8226C93.0856 49.8665 93.0608 49.9261 93.0607 49.9883V52.4817C93.061 52.5437 93.0858 52.6031 93.1297 52.6468C93.1737 52.6906 93.2331 52.7151 93.2951 52.7151H108.982C109.044 52.715 109.103 52.6904 109.147 52.6466C109.191 52.6029 109.215 52.5436 109.216 52.4817Z" fill="#009DC9"/>
<path d="M141.302 43.479H144.826L143.078 38.1585C142.955 37.7786 142.549 36.9994 141.302 36.9994C140.055 36.9994 139.648 37.7786 139.525 38.1585L137.777 43.479H141.302ZM136.833 46.3679L135.727 49.7556C135.727 49.7556 135.673 49.9879 135.492 49.9879H132.792C132.542 49.9879 132.619 49.7529 132.619 49.7529L136.792 37.1172C137.294 35.5798 138.435 34.0088 141.302 34.0088C144.168 34.0088 145.309 35.5798 145.812 37.1172L149.984 49.7529C149.984 49.7529 150.062 49.9879 149.812 49.9879H147.112C146.931 49.9879 146.878 49.7556 146.878 49.7556L145.771 46.3679H136.833Z" fill="white"/>
</g>
<defs>
<clipPath id="clip0_50_861">
<rect width="169.997" height="51.05" fill="white" transform="translate(16 18)"/>
</clipPath>
</defs>
</svg>
