<svg width="30" height="30" viewBox="0 0 30 30" fill="none" xmlns="http://www.w3.org/2000/svg">
<path d="M27.1875 9.09375V13.4531L26.3906 13.5C24.2813 13.5 22.3125 12.7031 20.8125 11.4375V20.7188C20.8478 22.5522 20.2781 24.3463 19.1914 25.8235C18.1048 27.3007 16.5618 28.3787 14.801 28.891C13.0401 29.4032 11.1596 29.3211 9.45013 28.6573C7.74066 27.9935 6.29748 26.785 5.34375 25.2188C6.18839 26.0411 7.20036 26.6717 8.31071 27.0677C9.42107 27.4637 10.6037 27.6157 11.7781 27.5134C12.9525 27.4111 14.0911 27.0568 15.1162 26.4748C16.1414 25.8928 17.029 25.0967 17.7188 24.1406C18.75 22.7344 19.4063 21 19.4063 19.0781V9.75C20.9063 11.0625 22.8281 11.8125 24.9844 11.8125L25.7812 11.7656V8.95312C26.2031 9.04688 26.5781 9.09375 27 9.09375H27.1875Z" fill="#FF004F"/>
<path d="M13.5939 12.3281V17.1562C12.9177 16.9718 12.2036 16.9782 11.5308 17.1746C10.8579 17.371 10.2526 17.7499 9.78182 18.2692C9.31105 18.7885 8.99321 19.428 8.86352 20.1168C8.73384 20.8056 8.79736 21.5169 9.04705 22.1719C8.55946 21.8153 8.1616 21.3501 7.88498 20.8131C7.60835 20.2761 7.46055 19.6821 7.4533 19.0781C7.44773 18.4925 7.57768 17.9136 7.833 17.3866C8.08832 16.8596 8.46208 16.3988 8.92506 16.0402C9.38804 15.6816 9.92769 15.435 10.5018 15.3196C11.0759 15.2042 11.669 15.2231 12.2345 15.375V12.2812H12.5158L13.5939 12.3281ZM21.5158 5.625C20.6728 4.85185 20.0569 3.86316 19.7345 2.76562H20.8595V3.42188C20.9533 4.17188 21.1877 4.92187 21.5158 5.625Z" fill="#FF004F"/>
<path d="M25.8282 9V11.8125L25.0313 11.8594C22.922 11.8594 20.9532 11.0625 19.4532 9.79688V19.0781C19.4532 20.9531 18.8438 22.7344 17.7657 24.1406C17.0664 25.0838 16.1749 25.8679 15.1501 26.4409C14.1253 27.014 12.9906 27.363 11.8209 27.4649C10.6512 27.5668 9.47314 27.4193 8.36468 27.0321C7.25622 26.6449 6.24256 26.0268 5.39072 25.2187C4.60646 23.968 4.1661 22.5324 4.1141 21.057C4.06209 19.5816 4.40028 18.1186 5.09452 16.8157C5.78877 15.5128 6.81448 14.4162 8.06811 13.6365C9.32174 12.8568 10.7589 12.4216 12.2345 12.375V15.4688C11.6689 15.3169 11.0759 15.2979 10.5017 15.4133C9.92761 15.5287 9.38796 15.7754 8.92498 16.1339C8.462 16.4925 8.08824 16.9533 7.83292 17.4803C7.5776 18.0074 7.44765 18.5863 7.45322 19.1719C7.44908 19.778 7.59191 20.376 7.86948 20.9148C8.14704 21.4536 8.55108 21.9171 9.04697 22.2656C9.30496 22.9957 9.77999 23.6294 10.4084 24.0818C11.0367 24.5343 11.7884 24.7838 12.5626 24.7969C14.6251 24.7969 16.3126 23.0625 16.3126 20.9531V2.76562H19.7345C20.0477 3.8672 20.6651 4.85819 21.5157 5.625C22.3595 7.3125 23.9532 8.57813 25.8282 9Z" fill="white"/>
<path d="M12.2345 10.6876V12.2814C10.7589 12.328 9.32179 12.7632 8.06816 13.5429C6.81453 14.3226 5.78882 15.4192 5.09458 16.7221C4.40033 18.025 4.06214 19.488 4.11415 20.9634C4.16615 22.4388 4.60651 23.8744 5.39077 25.1251C4.56907 24.3284 3.91707 23.3737 3.47401 22.3184C3.03094 21.2631 2.80597 20.129 2.81264 18.9845C2.8169 17.7981 3.07271 16.6261 3.56318 15.5459C4.05365 14.4656 4.76763 13.5016 5.65802 12.7176C6.5484 11.9335 7.59493 11.3472 8.72855 10.9973C9.86218 10.6473 11.0571 10.5418 12.2345 10.6876Z" fill="#24F5EE"/>
<path d="M19.7344 2.76562H16.3125V20.8594C16.3125 22.9688 14.625 24.7031 12.5625 24.7031C11.785 24.7037 11.0269 24.4595 10.3959 24.0052C9.76493 23.5509 9.29293 22.9095 9.04688 22.1719C9.65625 22.5938 10.4063 22.875 11.2031 22.875C11.6996 22.875 12.191 22.7765 12.6491 22.5851C13.1072 22.3938 13.5226 22.1133 13.8715 21.7601C14.2203 21.4069 14.4956 20.988 14.6812 20.5276C14.8669 20.0672 14.9593 19.5745 14.9531 19.0781V0.9375H19.5V1.03125L19.5469 1.59375C19.5469 1.96875 19.6406 2.39062 19.7344 2.76562ZM25.8281 7.26562V8.95312C23.9531 8.57812 22.3594 7.3125 21.4688 5.625C22.6473 6.72757 24.2151 7.3176 25.8281 7.26562Z" fill="#24F5EE"/>
</svg>
