<svg width="30" height="18" viewBox="0 0 30 18" fill="none" xmlns="http://www.w3.org/2000/svg">
<path d="M30 1.5C30 0 30 0 28.5 0H25.5C24 0 24 0 24 1.5C24 1.5 22.5 4.5 19.5 7.5C19.5 9 18 9 18 9C18 9 18 9 18 7.5V1.5C18 0 18 0 16.5 0H12C10.5 0 10.5 0 10.5 1.5C10.5 1.5 12 1.5 12 4.5V9C12 10.5 12 10.5 12 10.5C10.5 10.5 7.5 6 6 1.5C6 0 4.5 0 4.5 0H1.5C0 0 0 0 0 1.5C0 1.5 1.5 6 4.5 12C7.5 16.5 12 18 15 18C18 18 18 18 18 16.5V13.5C18 12 18 12 18 12C19.5 12 19.5 13.5 21 15C24 16.5 24 18 25.5 18H28.5C30 18 30 18 30 16.5C30 15 28.5 15 27 12L25.5 10.5C24 9 24 9 25.5 9C25.5 9 28.5 3 30 1.5Z" fill="#4A76A8"/>
</svg>
