<svg width="201" height="88" viewBox="0 0 201 88" fill="none" xmlns="http://www.w3.org/2000/svg">
<rect width="201" height="88" fill="black"/>
<mask id="mask0_50_823" style="mask-type:luminance" maskUnits="userSpaceOnUse" x="16" y="22" width="170" height="44">
<path d="M185.997 22H16V65.4243H185.997V22Z" fill="white"/>
</mask>
<g mask="url(#mask0_50_823)">
<path d="M21.2772 52.8637L16.0885 34.5408H19.4921L23.4788 48.6137L27.7515 34.5396L30.9242 34.5408L35.2118 48.6885L39.2165 34.5442L42.62 34.5396L37.4291 52.8604L33.4839 52.8565L29.3392 39.1733L25.1905 52.8601L21.2772 52.8637Z" fill="white"/>
<path d="M44.9674 34.5508H48.2073V52.8523H44.9674V34.5508Z" fill="white"/>
<path d="M55.1342 49.9815H63.0218V52.8523H51.9613V34.5508H55.1342V49.9815Z" fill="white"/>
<path d="M72.9877 34.5719C75.6467 34.5719 77.8588 35.4585 79.6017 37.2105C81.3669 38.9626 82.2607 41.1368 82.2607 43.7121C82.2607 46.2663 81.3669 48.4405 79.6017 50.2137C77.8588 51.9658 75.6467 52.8523 72.9877 52.8523H65.3682V34.5508H72.9877V34.5719ZM72.9877 50.0026C74.8199 50.0026 76.317 49.4115 77.4342 48.2294C78.5962 47.0473 79.1771 45.5275 79.1771 43.7332C79.1771 41.8967 78.5962 40.4191 77.4342 39.237C76.2947 38.0549 74.7976 37.4638 72.9877 37.4638H68.5635V50.0026H72.9877Z" fill="white"/>
<path d="M99.3543 47.6241C99.3543 49.1236 98.7961 50.3696 97.6564 51.3623C96.5167 52.3549 95.1759 52.8618 93.5227 52.8618H85.2327V34.5508H92.9192C94.5058 34.5508 95.846 35.0577 96.941 36.0081C98.0588 36.9796 98.595 38.1834 98.595 39.6196C98.595 41.2247 97.9242 42.4497 96.6287 43.3578C98.3265 44.2026 99.3543 45.7232 99.3543 47.6241ZM88.4277 37.3809V42.1962H92.9412C94.3493 42.1962 95.4217 41.1402 95.4217 39.7886C95.4217 38.4368 94.3493 37.3809 92.9412 37.3809H88.4277ZM93.5446 50.0317C95.0194 50.0317 96.1817 48.9123 96.1817 47.4762C96.1817 46.04 95.0194 44.9207 93.5446 44.9207H88.4277V50.0528H93.5446V50.0317Z" fill="white"/>
<path d="M105.544 49.9895H114.124V52.8618H102.371V34.5508H113.99V37.4231H105.544V42.1751H113.297V45.0263H105.544V49.9895Z" fill="white"/>
<path d="M128.023 52.8618L123.911 46.1879H120.157V52.8618H116.984V34.5508H124.738C126.481 34.5508 127.955 35.121 129.14 36.2826C130.346 37.402 130.972 38.7959 130.972 40.4433C130.972 42.7665 129.43 44.8995 127.129 45.7443L131.53 52.8618H128.023ZM120.157 37.3808V43.5056H124.716C126.413 43.5056 127.754 42.154 127.754 40.4433C127.754 38.7536 126.391 37.3808 124.716 37.3808H120.157Z" fill="white"/>
<path d="M144.982 52.8615L140.893 46.1842H137.139V52.8615H133.966V34.541H141.719C143.463 34.541 144.937 35.1116 146.122 36.2738C147.328 37.3937 147.954 38.7883 147.954 40.4365C147.954 42.761 146.412 44.8952 144.111 45.7404L148.512 52.8615H144.982ZM137.139 37.3726V43.5005H141.697C143.395 43.5005 144.736 42.1481 144.736 40.4365C144.736 38.7461 143.373 37.3726 141.697 37.3726H137.139Z" fill="white"/>
<path d="M150.836 34.543H154.009V52.8614H150.836V34.543Z" fill="white"/>
<path d="M160.936 49.9895H169.517V52.8617H157.763V34.5508H169.382V37.4231H160.936V42.1751H168.689V45.0263H160.936V49.9895Z" fill="white"/>
<path d="M171.729 48.6937L174.477 47.1738C175.259 49.2425 176.846 50.2557 179.281 50.2557C181.694 50.2557 182.878 49.2847 182.878 47.8493C182.878 47.0894 182.543 46.5406 181.918 46.1606C181.292 45.7595 180.13 45.3162 178.477 44.8518C176.622 44.3241 175.706 43.9863 174.41 43.1842C173.159 42.3399 172.533 41.1366 172.533 39.4902C172.533 37.8647 173.136 36.5982 174.365 35.6483C175.572 34.6773 177.047 34.2129 178.767 34.2129C181.873 34.2129 184.264 35.7327 185.516 38.2447L182.834 39.7012C182.029 38.0125 180.666 37.147 178.767 37.147C176.912 37.147 175.728 38.0336 175.728 39.4268C175.728 40.7778 176.667 41.4111 179.639 42.2765C180.376 42.5088 180.912 42.6776 181.247 42.8043C181.605 42.9098 182.074 43.0998 182.677 43.332C183.303 43.5642 183.795 43.8386 184.085 44.0708C185.113 44.8307 186.208 46.0761 186.074 47.8282C186.074 49.4747 185.448 50.8046 184.175 51.7756C182.923 52.7467 181.27 53.211 179.214 53.211C175.46 53.1899 172.734 51.5012 171.729 48.6937Z" fill="white"/>
</g>
</svg>
