<svg width="201" height="88" viewBox="0 0 201 88" fill="none" xmlns="http://www.w3.org/2000/svg">
<rect width="201" height="88" fill="black"/>
<g clip-path="url(#clip0_50_849)">
<path d="M95.5013 55.1768H98.8606L103.543 38.5027V55.1768H107.309V33.1396H102.118L97.4354 49.3263L92.7529 33.1396H87.4596V55.1768H90.717V38.5027L95.5013 55.1768ZM123.088 44.2557C123.088 40.3554 121.052 38.8927 116.878 38.8927C114.232 38.8927 112.196 39.6728 110.974 40.3554V43.4757C111.992 42.6956 114.333 41.9155 116.369 41.9155C118.303 41.9155 119.118 42.5981 119.118 44.2557V45.1333H118.507C112.501 45.1333 109.753 47.0835 109.753 50.3013C109.753 53.5192 111.788 55.3718 114.842 55.3718C117.184 55.3718 118.201 54.6893 118.914 53.9092H119.118C119.118 54.2992 119.321 54.8843 119.423 55.1768H123.291C123.189 53.9092 123.088 52.5441 123.088 51.2764V44.2557ZM119.118 51.374C118.609 52.0565 117.693 52.6416 116.267 52.6416C114.639 52.6416 113.824 51.6665 113.824 50.3013C113.824 48.4487 115.148 47.7661 118.609 47.7661H119.219L119.118 51.374ZM129.908 39.1852H126.243V59.7598H130.213V53.3241C131.231 54.7868 132.656 55.4694 134.387 55.4694C138.255 55.4694 140.902 52.5441 140.902 47.181C140.902 41.818 138.357 38.8927 134.59 38.8927C132.758 38.8927 131.231 39.6728 130.111 41.2329L129.908 39.1852ZM133.267 52.5441C131.231 52.5441 130.111 50.8864 130.111 47.2785C130.111 43.5732 131.231 41.9155 133.471 41.9155C135.608 41.9155 136.728 43.5732 136.728 47.181C136.728 50.8864 135.608 52.5441 133.267 52.5441ZM153.219 55.1768H157.698L151.386 46.596L156.985 39.1852H153.015L147.416 46.596V39.1852H143.446V55.1768H147.416V47.3761L153.219 55.1768ZM170.931 54.1042V50.9839C169.709 51.764 167.674 52.4466 165.739 52.4466C162.889 52.4466 161.769 51.1789 161.566 48.4487H171.033V46.401C171.033 40.8429 168.488 38.7952 164.518 38.7952C159.734 38.7952 157.392 42.3056 157.392 47.181C157.392 52.7391 160.243 55.4694 165.23 55.4694C167.979 55.4694 169.811 54.8843 170.931 54.1042ZM164.518 41.9155C166.452 41.9155 167.063 43.4757 167.063 45.4259V45.7184H161.566C161.668 43.1831 162.686 41.9155 164.518 41.9155ZM185.182 42.208V39.1852H171.949V42.208H176.631V55.1768H180.601V42.208H185.182Z" fill="white"/>
<path d="M63.9451 59.0771C72.3941 59.0771 79.2143 52.544 79.2143 44.4507C79.2143 36.3574 72.3941 29.8242 63.9451 29.8242C55.4962 29.8242 48.676 36.3574 48.676 44.4507C48.5742 52.544 55.4962 59.0771 63.9451 59.0771Z" fill="#FED42B"/>
<path d="M31.2691 59.0771C39.7021 59.0771 46.5383 52.5286 46.5383 44.4507C46.5383 36.3727 39.7021 29.8242 31.2691 29.8242C22.8362 29.8242 16 36.3727 16 44.4507C16 52.5286 22.8362 59.0771 31.2691 59.0771Z" fill="#FC3F1D"/>
<path d="M33.5086 38.015H31.9817C29.335 38.015 28.0117 39.2827 28.0117 41.2329C28.0117 43.3781 28.9279 44.4507 30.862 45.7183L32.3889 46.7909L28.0117 53.324H24.4489L28.6225 47.376C26.1794 45.7183 24.8561 44.1581 24.8561 41.4279C24.8561 38.015 27.2992 35.6748 31.9817 35.6748H36.6642V53.2265H33.6104L33.5086 38.015Z" fill="white"/>
<mask id="mask0_50_849" style="mask-type:luminance" maskUnits="userSpaceOnUse" x="48" y="29" width="32" height="31">
<path d="M63.9451 59.0771C72.3941 59.0771 79.2143 52.544 79.2143 44.4507C79.2143 36.3574 72.3941 29.8242 63.9451 29.8242C55.4962 29.8242 48.676 36.3574 48.676 44.4507C48.5742 52.544 55.4962 59.0771 63.9451 59.0771Z" fill="white"/>
</mask>
<g mask="url(#mask0_50_849)">
<path d="M56.4123 37.8202L42.9755 54.6893L46.5383 58.5897L56.5141 45.9135L55.4962 52.8366L61.0949 54.6893L67.9151 44.2558C67.6097 46.206 67.1007 50.6914 71.5797 52.0566C78.6035 54.1043 84.7112 42.0131 87.5614 35.87L83.4896 33.8223C80.334 40.1604 75.4479 47.1811 73.5138 46.6935C71.5797 46.206 73.3102 40.2579 74.4299 36.455V36.3575L68.2205 34.3098L60.7895 45.9135L61.8074 39.5753L56.4123 37.8202Z" fill="black"/>
</g>
</g>
<defs>
<clipPath id="clip0_50_849">
<rect width="169.997" height="48.9012" fill="white" transform="translate(16 20)"/>
</clipPath>
</defs>
</svg>
