<svg width="27" height="20" viewBox="0 0 27 20" fill="none" xmlns="http://www.w3.org/2000/svg">
<path d="M20 9.5C20 12.5376 17.0899 15 13.5 15C9.91015 15 7 12.5376 7 9.5C7 6.46243 9.91015 4 13.5 4C17.0899 4 20 6.46243 20 9.5Z" fill="white"/>
<path d="M21 0.0621321C22.5 0.212132 24.45 0.0621322 25.5 1.26213C26.7 2.46213 26.85 4.41213 26.85 5.91213C27 7.71213 27 10.2621 27 11.9121C26.85 13.5621 27 15.5121 26.25 17.0121C25.5 18.6621 24.15 19.2621 22.5 19.4121C20.7 19.5621 9.6 19.5621 6 19.4121C4.35 19.2621 2.4 19.2621 1.2 17.9121C0.15 16.7121 0.15 14.9121 0 13.4121C0 11.6121 0 9.06213 0 7.26213C0 5.61213 0 3.66213 0.75 2.16213C1.5 0.662132 3 0.362132 4.65 0.212132C6.45 0.0621319 17.4 -0.0878679 21 0.0621321ZM10.5 5.16213V14.1621L18.75 9.66213L10.5 5.16213Z" fill="#FF0000"/>
</svg>
